<mxfile host="app.diagrams.net" modified="2023-01-30T16:33:34.522Z" agent="5.0 (Windows NT 10.0; Win64; x64) AppleWebKit/537.36 (KHTML, like Gecko) Chrome/109.0.0.0 Safari/537.36" etag="F90_f_A3R0esxli9Ynly" version="20.8.13" type="github">
  <diagram id="C5RBs43oDa-KdzZeNtuy" name="Page-1">
    <mxGraphModel dx="3420" dy="1405" grid="1" gridSize="10" guides="1" tooltips="1" connect="1" arrows="1" fold="1" page="1" pageScale="1" pageWidth="827" pageHeight="1169" math="0" shadow="0">
      <root>
        <mxCell id="WIyWlLk6GJQsqaUBKTNV-0" />
        <mxCell id="WIyWlLk6GJQsqaUBKTNV-1" parent="WIyWlLk6GJQsqaUBKTNV-0" />
        <mxCell id="uWypOpxTlNG1g023V_Ra-0" value="End" style="rounded=1;whiteSpace=wrap;html=1;fillColor=#F9FF4D;" vertex="1" parent="WIyWlLk6GJQsqaUBKTNV-1">
          <mxGeometry x="745" y="530" width="120" height="60" as="geometry" />
        </mxCell>
        <mxCell id="uWypOpxTlNG1g023V_Ra-1" style="edgeStyle=orthogonalEdgeStyle;rounded=0;orthogonalLoop=1;jettySize=auto;html=1;" edge="1" parent="WIyWlLk6GJQsqaUBKTNV-1" source="uWypOpxTlNG1g023V_Ra-2" target="uWypOpxTlNG1g023V_Ra-5">
          <mxGeometry relative="1" as="geometry" />
        </mxCell>
        <mxCell id="uWypOpxTlNG1g023V_Ra-2" value="Start" style="rounded=1;whiteSpace=wrap;html=1;fillColor=#F9FF4D;" vertex="1" parent="WIyWlLk6GJQsqaUBKTNV-1">
          <mxGeometry x="59.04" y="40" width="254.39" height="60" as="geometry" />
        </mxCell>
        <mxCell id="uWypOpxTlNG1g023V_Ra-16" value="" style="edgeStyle=orthogonalEdgeStyle;rounded=0;orthogonalLoop=1;jettySize=auto;html=1;" edge="1" parent="WIyWlLk6GJQsqaUBKTNV-1" source="uWypOpxTlNG1g023V_Ra-5" target="uWypOpxTlNG1g023V_Ra-7">
          <mxGeometry relative="1" as="geometry" />
        </mxCell>
        <mxCell id="uWypOpxTlNG1g023V_Ra-5" value="&lt;div style=&quot;background-color: rgb(30, 30, 30); font-family: Consolas, &amp;quot;Courier New&amp;quot;, monospace; font-size: 18px; line-height: 24px;&quot;&gt;&lt;div style=&quot;color: rgb(212, 212, 212);&quot;&gt;string[] &lt;span style=&quot;color: #9cdcfe;&quot;&gt;people&lt;/span&gt; = {&lt;span style=&quot;color: #ce9178;&quot;&gt;&quot;John&quot;&lt;/span&gt;,&lt;span style=&quot;color: #ce9178;&quot;&gt;&quot;Sam&quot;&lt;/span&gt;,&lt;span style=&quot;color: #ce9178;&quot;&gt;&quot;Laury&quot;&lt;/span&gt;};&lt;/div&gt;&lt;div style=&quot;color: rgb(212, 212, 212);&quot;&gt;int&lt;span style=&quot;color: rgb(0, 0, 0);&quot;&gt;&amp;nbsp;&lt;/span&gt;&lt;span style=&quot;border-color: var(--border-color); color: rgb(156, 220, 254);&quot;&gt;size&lt;/span&gt;&lt;span style=&quot;color: rgb(0, 0, 0);&quot;&gt;&amp;nbsp;&lt;/span&gt;&lt;font style=&quot;border-color: var(--border-color);&quot; color=&quot;#d4d4d4&quot;&gt;=&amp;nbsp;&lt;/font&gt;&lt;font style=&quot;border-color: var(--border-color);&quot; color=&quot;#9cdcfe&quot;&gt;people. Length&lt;/font&gt;&lt;font style=&quot;border-color: var(--border-color);&quot; color=&quot;#d4d4d4&quot;&gt;;&lt;/font&gt;&lt;br&gt;&lt;/div&gt;&lt;div style=&quot;&quot;&gt;&lt;span style=&quot;color: rgb(212, 212, 212);&quot;&gt;&lt;span style=&quot;color: #569cd6;&quot;&gt;string&lt;/span&gt;[] &lt;span style=&quot;color: #9cdcfe;&quot;&gt;nju&lt;/span&gt; = &lt;span style=&quot;color: #569cd6;&quot;&gt;new&lt;/span&gt; &lt;span style=&quot;color: #569cd6;&quot;&gt;string&lt;/span&gt;[&lt;/span&gt;&lt;font color=&quot;#b5cea8&quot;&gt;size&lt;/font&gt;&lt;font color=&quot;#d4d4d4&quot;&gt;];&lt;/font&gt;&lt;/div&gt;&lt;div style=&quot;&quot;&gt;&lt;font color=&quot;#d4d4d4&quot;&gt;создали 2 массива, где длина второго будет равна длине первого&lt;/font&gt;&lt;/div&gt;&lt;/div&gt;" style="shape=parallelogram;perimeter=parallelogramPerimeter;whiteSpace=wrap;html=1;fixedSize=1;fillColor=#8CECFF;" vertex="1" parent="WIyWlLk6GJQsqaUBKTNV-1">
          <mxGeometry x="-143.76" y="196.25" width="660" height="133.75" as="geometry" />
        </mxCell>
        <mxCell id="uWypOpxTlNG1g023V_Ra-17" value="" style="edgeStyle=orthogonalEdgeStyle;rounded=0;orthogonalLoop=1;jettySize=auto;html=1;" edge="1" parent="WIyWlLk6GJQsqaUBKTNV-1" source="uWypOpxTlNG1g023V_Ra-7" target="uWypOpxTlNG1g023V_Ra-13">
          <mxGeometry relative="1" as="geometry" />
        </mxCell>
        <mxCell id="uWypOpxTlNG1g023V_Ra-7" value="&lt;div style=&quot;color: rgb(212, 212, 212); background-color: rgb(30, 30, 30); font-family: Consolas, &amp;quot;Courier New&amp;quot;, monospace; font-size: 18px; line-height: 24px;&quot;&gt;for (&lt;span style=&quot;color: #569cd6;&quot;&gt;int&lt;/span&gt; &lt;span style=&quot;color: #9cdcfe;&quot;&gt;i&lt;/span&gt; = &lt;span style=&quot;color: #b5cea8;&quot;&gt;0&lt;/span&gt;; &lt;span style=&quot;color: #9cdcfe;&quot;&gt;i&lt;/span&gt; &amp;lt; &lt;span style=&quot;color: #9cdcfe;&quot;&gt;size&lt;/span&gt;; &lt;span style=&quot;color: #9cdcfe;&quot;&gt;i&lt;/span&gt;++)&lt;/div&gt;&lt;div style=&quot;color: rgb(212, 212, 212); background-color: rgb(30, 30, 30); font-family: Consolas, &amp;quot;Courier New&amp;quot;, monospace; font-size: 18px; line-height: 24px;&quot;&gt;&lt;div style=&quot;line-height: 24px;&quot;&gt;var &lt;span style=&quot;color: #9cdcfe;&quot;&gt;len&lt;/span&gt; = &lt;span style=&quot;color: #9cdcfe;&quot;&gt;people&lt;/span&gt;[&lt;span style=&quot;color: #9cdcfe;&quot;&gt;i&lt;/span&gt;].Length;&lt;/div&gt;&lt;div style=&quot;line-height: 24px;&quot;&gt;Создаём цикл с помощью которого мы будем обходить наш массив. Внутри цикла создаём переменную len которая будет проверять длину элемента в нашем массиве&amp;nbsp;&lt;/div&gt;&lt;/div&gt;" style="rounded=0;whiteSpace=wrap;html=1;fillColor=#8CECFF;" vertex="1" parent="WIyWlLk6GJQsqaUBKTNV-1">
          <mxGeometry x="-65.3" y="380" width="503.11" height="180" as="geometry" />
        </mxCell>
        <mxCell id="uWypOpxTlNG1g023V_Ra-33" value="" style="edgeStyle=orthogonalEdgeStyle;rounded=0;orthogonalLoop=1;jettySize=auto;html=1;" edge="1" parent="WIyWlLk6GJQsqaUBKTNV-1" source="uWypOpxTlNG1g023V_Ra-8" target="uWypOpxTlNG1g023V_Ra-5">
          <mxGeometry relative="1" as="geometry" />
        </mxCell>
        <mxCell id="uWypOpxTlNG1g023V_Ra-8" value="Ввод первичных данных" style="text;html=1;align=center;verticalAlign=middle;resizable=0;points=[];autosize=1;strokeColor=none;fillColor=none;" vertex="1" parent="WIyWlLk6GJQsqaUBKTNV-1">
          <mxGeometry x="590" y="248.13" width="160" height="30" as="geometry" />
        </mxCell>
        <mxCell id="uWypOpxTlNG1g023V_Ra-22" value="" style="edgeStyle=orthogonalEdgeStyle;rounded=0;orthogonalLoop=1;jettySize=auto;html=1;" edge="1" parent="WIyWlLk6GJQsqaUBKTNV-1" source="uWypOpxTlNG1g023V_Ra-9" target="uWypOpxTlNG1g023V_Ra-7">
          <mxGeometry relative="1" as="geometry" />
        </mxCell>
        <mxCell id="uWypOpxTlNG1g023V_Ra-9" value="Основное действие" style="text;html=1;align=center;verticalAlign=middle;resizable=0;points=[];autosize=1;strokeColor=none;fillColor=none;" vertex="1" parent="WIyWlLk6GJQsqaUBKTNV-1">
          <mxGeometry x="505" y="455" width="130" height="30" as="geometry" />
        </mxCell>
        <mxCell id="uWypOpxTlNG1g023V_Ra-34" value="" style="edgeStyle=orthogonalEdgeStyle;rounded=0;orthogonalLoop=1;jettySize=auto;html=1;" edge="1" parent="WIyWlLk6GJQsqaUBKTNV-1" source="uWypOpxTlNG1g023V_Ra-11" target="uWypOpxTlNG1g023V_Ra-0">
          <mxGeometry relative="1" as="geometry" />
        </mxCell>
        <mxCell id="uWypOpxTlNG1g023V_Ra-11" value="&lt;div style=&quot;color: rgb(212, 212, 212); background-color: rgb(30, 30, 30); font-family: Consolas, &amp;quot;Courier New&amp;quot;, monospace; font-size: 18px; line-height: 24px;&quot;&gt;Console.&lt;span style=&quot;color: #dcdcaa;&quot;&gt;WriteLine&lt;/span&gt;(&lt;span style=&quot;color: #ce9178;&quot;&gt;$&quot;&lt;/span&gt;{&lt;span style=&quot;color: #9cdcfe;&quot;&gt;nju&lt;/span&gt;[&lt;span style=&quot;color: #9cdcfe;&quot;&gt;i&lt;/span&gt;]}&lt;span style=&quot;color: #ce9178;&quot;&gt;&quot;&lt;/span&gt;);&lt;/div&gt;&lt;div style=&quot;color: rgb(212, 212, 212); background-color: rgb(30, 30, 30); font-family: Consolas, &amp;quot;Courier New&amp;quot;, monospace; font-size: 18px; line-height: 24px;&quot;&gt;&lt;br&gt;&lt;/div&gt;" style="shape=document;whiteSpace=wrap;html=1;boundedLbl=1;" vertex="1" parent="WIyWlLk6GJQsqaUBKTNV-1">
          <mxGeometry x="650" y="410" width="310" height="70" as="geometry" />
        </mxCell>
        <mxCell id="uWypOpxTlNG1g023V_Ra-31" value="" style="edgeStyle=orthogonalEdgeStyle;rounded=0;orthogonalLoop=1;jettySize=auto;html=1;" edge="1" parent="WIyWlLk6GJQsqaUBKTNV-1" source="uWypOpxTlNG1g023V_Ra-12" target="uWypOpxTlNG1g023V_Ra-11">
          <mxGeometry relative="1" as="geometry" />
        </mxCell>
        <mxCell id="uWypOpxTlNG1g023V_Ra-12" value="Результат" style="text;html=1;align=center;verticalAlign=middle;resizable=0;points=[];autosize=1;strokeColor=none;fillColor=none;" vertex="1" parent="WIyWlLk6GJQsqaUBKTNV-1">
          <mxGeometry x="765" y="360" width="80" height="30" as="geometry" />
        </mxCell>
        <mxCell id="uWypOpxTlNG1g023V_Ra-20" value="Yes" style="edgeStyle=orthogonalEdgeStyle;rounded=0;orthogonalLoop=1;jettySize=auto;html=1;" edge="1" parent="WIyWlLk6GJQsqaUBKTNV-1" source="uWypOpxTlNG1g023V_Ra-13" target="uWypOpxTlNG1g023V_Ra-19">
          <mxGeometry relative="1" as="geometry" />
        </mxCell>
        <mxCell id="uWypOpxTlNG1g023V_Ra-13" value="&lt;div style=&quot;background-color: rgb(30, 30, 30); font-family: Consolas, &amp;quot;Courier New&amp;quot;, monospace; font-size: 18px; line-height: 24px;&quot;&gt;&lt;span style=&quot;color: rgb(212, 212, 212);&quot;&gt;if (&lt;span style=&quot;color: #9cdcfe;&quot;&gt;len&lt;/span&gt; &amp;lt;= &lt;/span&gt;&lt;font color=&quot;#b5cea8&quot;&gt;11&lt;/font&gt;&lt;font color=&quot;#d4d4d4&quot;&gt;)&lt;/font&gt;&lt;/div&gt;&lt;div style=&quot;color: rgb(212, 212, 212); background-color: rgb(30, 30, 30); font-family: Consolas, &amp;quot;Courier New&amp;quot;, monospace; font-size: 18px; line-height: 24px;&quot;&gt;проверяем длину элемента массива,&lt;/div&gt;&lt;div style=&quot;color: rgb(212, 212, 212); background-color: rgb(30, 30, 30); font-family: Consolas, &amp;quot;Courier New&amp;quot;, monospace; font-size: 18px; line-height: 24px;&quot;&gt;необходимо что бы она была &amp;lt;= 11&lt;/div&gt;" style="rhombus;whiteSpace=wrap;html=1;fillColor=#8CECFF;" vertex="1" parent="WIyWlLk6GJQsqaUBKTNV-1">
          <mxGeometry x="-93.05000000000001" y="640" width="558.6" height="250" as="geometry" />
        </mxCell>
        <mxCell id="uWypOpxTlNG1g023V_Ra-23" value="" style="edgeStyle=orthogonalEdgeStyle;rounded=0;orthogonalLoop=1;jettySize=auto;html=1;" edge="1" parent="WIyWlLk6GJQsqaUBKTNV-1" source="uWypOpxTlNG1g023V_Ra-15" target="uWypOpxTlNG1g023V_Ra-13">
          <mxGeometry relative="1" as="geometry" />
        </mxCell>
        <mxCell id="uWypOpxTlNG1g023V_Ra-15" value="Основное условие" style="text;html=1;align=center;verticalAlign=middle;resizable=0;points=[];autosize=1;strokeColor=none;fillColor=none;" vertex="1" parent="WIyWlLk6GJQsqaUBKTNV-1">
          <mxGeometry x="505" y="750" width="130" height="30" as="geometry" />
        </mxCell>
        <mxCell id="uWypOpxTlNG1g023V_Ra-19" value="&lt;div style=&quot;color: rgb(212, 212, 212); background-color: rgb(30, 30, 30); font-family: Consolas, &amp;quot;Courier New&amp;quot;, monospace; font-size: 18px; line-height: 24px;&quot;&gt;&lt;div style=&quot;line-height: 24px;&quot;&gt;nju[&lt;span style=&quot;color: #9cdcfe;&quot;&gt;i&lt;/span&gt;] = &lt;span style=&quot;color: #9cdcfe;&quot;&gt;people&lt;/span&gt;[&lt;span style=&quot;color: #9cdcfe;&quot;&gt;i&lt;/span&gt;];&lt;/div&gt;&lt;div style=&quot;line-height: 24px;&quot;&gt;копируем ссылку на элемент с позицией i из массива people в массив nju на ту же позицию&lt;/div&gt;&lt;/div&gt;" style="rounded=0;whiteSpace=wrap;html=1;fillColor=#8CECFF;" vertex="1" parent="WIyWlLk6GJQsqaUBKTNV-1">
          <mxGeometry x="42.34" y="950" width="287.81" height="160" as="geometry" />
        </mxCell>
        <mxCell id="uWypOpxTlNG1g023V_Ra-24" value="" style="edgeStyle=orthogonalEdgeStyle;rounded=0;orthogonalLoop=1;jettySize=auto;html=1;" edge="1" parent="WIyWlLk6GJQsqaUBKTNV-1" source="uWypOpxTlNG1g023V_Ra-21" target="uWypOpxTlNG1g023V_Ra-19">
          <mxGeometry relative="1" as="geometry" />
        </mxCell>
        <mxCell id="uWypOpxTlNG1g023V_Ra-21" value="Действие" style="text;whiteSpace=wrap;html=1;align=center;" vertex="1" parent="WIyWlLk6GJQsqaUBKTNV-1">
          <mxGeometry x="385" y="1015" width="120" height="30" as="geometry" />
        </mxCell>
        <mxCell id="uWypOpxTlNG1g023V_Ra-30" value="" style="endArrow=classic;html=1;rounded=0;" edge="1" parent="WIyWlLk6GJQsqaUBKTNV-1">
          <mxGeometry width="50" height="50" relative="1" as="geometry">
            <mxPoint x="440" y="430" as="sourcePoint" />
            <mxPoint x="650" y="430" as="targetPoint" />
          </mxGeometry>
        </mxCell>
        <mxCell id="uWypOpxTlNG1g023V_Ra-32" value="No" style="endArrow=classic;html=1;rounded=0;exitX=0;exitY=0.5;exitDx=0;exitDy=0;entryX=0;entryY=0.5;entryDx=0;entryDy=0;" edge="1" parent="WIyWlLk6GJQsqaUBKTNV-1" source="uWypOpxTlNG1g023V_Ra-13" target="uWypOpxTlNG1g023V_Ra-7">
          <mxGeometry x="0.1677" width="50" height="50" relative="1" as="geometry">
            <mxPoint x="-190" y="750" as="sourcePoint" />
            <mxPoint x="-140" y="700" as="targetPoint" />
            <Array as="points">
              <mxPoint x="-170" y="760" />
              <mxPoint x="-170" y="470" />
            </Array>
            <mxPoint as="offset" />
          </mxGeometry>
        </mxCell>
        <mxCell id="uWypOpxTlNG1g023V_Ra-35" value="" style="endArrow=classic;html=1;rounded=0;exitX=-0.004;exitY=0.586;exitDx=0;exitDy=0;exitPerimeter=0;" edge="1" parent="WIyWlLk6GJQsqaUBKTNV-1" source="uWypOpxTlNG1g023V_Ra-19">
          <mxGeometry width="50" height="50" relative="1" as="geometry">
            <mxPoint x="-143.05" y="1000" as="sourcePoint" />
            <mxPoint x="-70" y="440" as="targetPoint" />
            <Array as="points">
              <mxPoint x="-240" y="780" />
              <mxPoint x="-240" y="440" />
            </Array>
          </mxGeometry>
        </mxCell>
      </root>
    </mxGraphModel>
  </diagram>
</mxfile>
